# xmcd
#
# Track frame offsets:
#	182
#	14197
#	30807
#	48127
#	62547
#	82002
#	101495
#	114410
#	129852
#	143475
#	161207
#	179367
#
# Disc length: 2666 seconds
#
# Revision: 1
# Processed by: cddbd v1.4PL0 Copyright (c) Steve Scherf et al.
# Submitted via: audiograbber 1.81.01
#
DISCID=910a680c
DTITLE=Wess - I Grandi Successi Originali cd2
DYEAR=1900
DGENRE=pop
TTITLE0=Mezzanotte
TTITLE1=Il vento amico
TTITLE2=Nella mente una preghiera
TTITLE3=Immagina che...
TTITLE4=Eri bella, eri mia
TTITLE5=Carrie
TTITLE6=Io non ti scorderò
TTITLE7=Devo averti
TTITLE8=Morire d'amore
TTITLE9=Feelings
TTITLE10=Don play thai
TTITLE11=angelita di anzio
EXTD=
EXTT0=
EXTT1=
EXTT2=
EXTT3=
EXTT4=
EXTT5=
EXTT6=
EXTT7=
EXTT8=
EXTT9=
EXTT10=
EXTT11=
PLAYORDER=
